<?xml version="1.0" standalone="no"?><!DOCTYPE svg PUBLIC "-//W3C//DTD SVG 1.1//EN" "http://www.w3.org/Graphics/SVG/1.1/DTD/svg11.dtd"><svg t="1667300211823" class="icon" viewBox="0 0 1024 1024" version="1.1" xmlns="http://www.w3.org/2000/svg" p-id="1466" xmlns:xlink="http://www.w3.org/1999/xlink" width="200" height="200"><path d="M128 96h564.672L896 315.04V928H128z" fill="#FFFFFF" p-id="1467"></path><path d="M704 96.224l0.064-0.032L894.976 288H896v640H128V96h576v0.224z m0 45.28V288h145.824L704 141.504zM672 128H160v768h704V320h-192V128z" fill="#5D6D7E" p-id="1468"></path><path d="M224 832h576v32H224z" fill="#30AD98" p-id="1469"></path><path d="M736 480a32 32 0 0 1 32 32v32a32 32 0 0 1-32 32h-37.568a206.784 206.784 0 0 1-25.376 61.184l26.592 26.56a32 32 0 0 1 0 45.28l-22.624 22.624a32 32 0 0 1-45.248 0l-26.56-26.56c-18.688 11.52-39.264 20.16-61.216 25.344V768a32 32 0 0 1-32 32h-32a32 32 0 0 1-32-32v-37.568a206.784 206.784 0 0 1-61.184-25.376l-26.56 26.592a32 32 0 0 1-45.28 0l-22.624-22.624a32 32 0 0 1 0-45.248l26.56-26.56A206.784 206.784 0 0 1 293.6 576H256a32 32 0 0 1-32-32v-32a32 32 0 0 1 32-32h37.568c5.184-21.952 13.856-42.56 25.376-61.184l-26.592-26.56a32 32 0 0 1 0-45.28l22.624-22.624a32 32 0 0 1 45.248 0l26.56 26.56A206.784 206.784 0 0 1 448 325.6V288a32 32 0 0 1 32-32h32a32 32 0 0 1 32 32v37.568c21.952 5.184 42.56 13.856 61.184 25.376l26.56-26.592a32 32 0 0 1 45.28 0l22.624 22.624a32 32 0 0 1 0 45.248l-26.56 26.56c11.52 18.688 20.16 39.264 25.344 61.216H736z m-68.704 7.36a174.784 174.784 0 0 0-21.44-51.712l-13.312-21.568 44.48-44.48-22.624-22.624-44.48 44.48-21.568-13.312a174.784 174.784 0 0 0-51.712-21.44l-24.64-5.824V288h-32v62.88l-24.64 5.824a174.784 174.784 0 0 0-51.712 21.44l-21.568 13.312-44.48-44.48-22.624 22.624 44.48 44.48-13.312 21.568a174.784 174.784 0 0 0-21.44 51.712l-5.824 24.64H256v32h62.88l5.824 24.64c4.32 18.336 11.584 35.776 21.44 51.712l13.312 21.568-44.48 44.48 22.624 22.624 44.48-44.48 21.568 13.312a174.784 174.784 0 0 0 51.712 21.44l24.64 5.824V768h32v-62.88l24.64-5.824a174.784 174.784 0 0 0 51.712-21.44l21.568-13.312 44.48 44.48 22.624-22.624-44.48-44.48 13.312-21.568a174.784 174.784 0 0 0 21.44-51.712l5.824-24.64H736v-32H673.12l-5.824-24.64z m-170.72 153.152a112 112 0 1 1 0-224 112 112 0 0 1 0 224z m0-32a80 80 0 1 0 0-160 80 80 0 0 0 0 160z" fill="#27A2DF" p-id="1470"></path></svg>