<?xml version="1.0" standalone="no"?><!DOCTYPE svg PUBLIC "-//W3C//DTD SVG 1.1//EN" "http://www.w3.org/Graphics/SVG/1.1/DTD/svg11.dtd"><svg t="1667299592372" class="icon" viewBox="0 0 1024 1024" version="1.1" xmlns="http://www.w3.org/2000/svg" p-id="9163" xmlns:xlink="http://www.w3.org/1999/xlink" width="200" height="200"><path d="M511.9 325.12v248.55L727.15 449.4l-0.01-248.55z" fill="#C3D2FB" p-id="9164"></path><path d="M296.65 200.85L511.9 325.12v248.56L296.65 449.4z" fill="#3D4265" p-id="9165"></path><path d="M511.9 325.12l215.25-124.27L511.9 76.57 296.65 200.85z" fill="#386BF3" p-id="9166"></path><path d="M296.62 698.02v248.55L511.87 822.3l-0.01-248.56z" fill="#C3D2FB" p-id="9167"></path><path d="M81.37 573.74l215.25 124.28v248.55L81.37 822.3z" fill="#3D4265" p-id="9168"></path><path d="M296.62 698.02l215.25-124.28-215.25-124.27L81.37 573.74z" fill="#386BF3" p-id="9169"></path><path d="M727.03 698.02v248.55L942.28 822.3l-0.01-248.56z" fill="#C3D2FB" p-id="9170"></path><path d="M511.78 573.74l215.25 124.28v248.55L511.78 822.3z" fill="#3D4265" p-id="9171"></path><path d="M727.03 698.02l215.25-124.28-215.25-124.27-215.25 124.27z" fill="#386BF3" p-id="9172"></path></svg>